<svg id="Layer_1" data-name="Layer 1" xmlns="http://www.w3.org/2000/svg" xmlns:xlink="http://www.w3.org/1999/xlink" viewBox="0 0 1080 1080"><defs><style>.cls-1{fill:url(#linear-gradient);}.cls-2{fill:url(#linear-gradient-2);}.cls-3{fill:url(#linear-gradient-3);}.cls-4{fill:url(#linear-gradient-4);}.cls-5{fill:url(#linear-gradient-5);}.cls-6{fill:url(#linear-gradient-6);}.cls-7{fill:url(#linear-gradient-7);}.cls-8{fill:url(#linear-gradient-8);}.cls-9{fill:url(#linear-gradient-9);}.cls-10{fill:url(#linear-gradient-10);}.cls-11{fill:none;}.cls-12{fill:url(#linear-gradient-11);}.cls-13{fill:url(#linear-gradient-12);}.cls-14{fill:url(#linear-gradient-13);}.cls-15{fill:url(#linear-gradient-14);}.cls-16{fill:url(#linear-gradient-15);}.cls-17{fill:url(#linear-gradient-16);}.cls-18{fill:url(#linear-gradient-17);}.cls-19{fill:url(#linear-gradient-18);}.cls-20{fill:url(#linear-gradient-19);}.cls-21{fill:url(#linear-gradient-20);}.cls-22{fill:url(#linear-gradient-21);}</style><linearGradient id="linear-gradient" x1="518.76" y1="635.44" x2="81.18" y2="731.53" gradientUnits="userSpaceOnUse"><stop offset="0" stop-color="#24e6aa"/><stop offset="1" stop-color="#46ef7e"/></linearGradient><linearGradient id="linear-gradient-2" x1="529.55" y1="684.58" x2="91.98" y2="780.67" xlink:href="#linear-gradient"/><linearGradient id="linear-gradient-3" x1="533.32" y1="701.7" x2="95.74" y2="797.8" xlink:href="#linear-gradient"/><linearGradient id="linear-gradient-4" x1="535.97" y1="713.78" x2="98.39" y2="809.87" xlink:href="#linear-gradient"/><linearGradient id="linear-gradient-5" x1="602.75" y1="714.1" x2="1002.58" y2="806.76" gradientUnits="userSpaceOnUse"><stop offset="0" stop-color="#0ad0ff"/><stop offset="1" stop-color="#8e7afe"/></linearGradient><linearGradient id="linear-gradient-6" x1="608.76" y1="688.15" x2="1008.59" y2="780.82" xlink:href="#linear-gradient-5"/><linearGradient id="linear-gradient-7" x1="613.13" y1="669.31" x2="1012.96" y2="761.97" xlink:href="#linear-gradient-5"/><linearGradient id="linear-gradient-8" x1="801.4" y1="699.67" x2="934.77" y2="730.58" xlink:href="#linear-gradient-5"/><linearGradient id="linear-gradient-9" x1="718.32" y1="671.25" x2="1012.88" y2="739.52" xlink:href="#linear-gradient-5"/><linearGradient id="linear-gradient-10" x1="524.8" y1="662.92" x2="87.22" y2="759.02" xlink:href="#linear-gradient"/><linearGradient id="linear-gradient-11" x1="412.57" y1="458.71" x2="531.55" y2="312.27" gradientUnits="userSpaceOnUse"><stop offset="0" stop-color="#0ad0ff"/><stop offset="0.16" stop-color="#0fcdff"/><stop offset="0.34" stop-color="#1cc4ff"/><stop offset="0.52" stop-color="#32b6ff"/><stop offset="0.71" stop-color="#51a2fe"/><stop offset="0.91" stop-color="#7888fe"/><stop offset="1" stop-color="#8e7afe"/></linearGradient><linearGradient id="linear-gradient-12" x1="473.49" y1="504.55" x2="431.52" y2="554.49" gradientUnits="userSpaceOnUse"><stop offset="0" stop-color="#03d8f9"/><stop offset="1" stop-color="#26e3c4"/></linearGradient><linearGradient id="linear-gradient-13" x1="394.53" y1="436.79" x2="498.64" y2="312.1" gradientUnits="userSpaceOnUse"><stop offset="0" stop-color="#03d8f9"/><stop offset="0.31" stop-color="#05d9f6"/><stop offset="0.56" stop-color="#0cdbeb"/><stop offset="0.79" stop-color="#17deda"/><stop offset="1" stop-color="#26e3c4"/></linearGradient><linearGradient id="linear-gradient-14" x1="480.03" y1="367.78" x2="540.02" y2="443.47" xlink:href="#linear-gradient-5"/><linearGradient id="linear-gradient-15" x1="515" y1="486.95" x2="577.92" y2="420.6" xlink:href="#linear-gradient-5"/><linearGradient id="linear-gradient-16" x1="542.32" y1="475.93" x2="602.33" y2="551.65" xlink:href="#linear-gradient-5"/><linearGradient id="linear-gradient-17" x1="485.59" y1="547.61" x2="323.14" y2="354.28" xlink:href="#linear-gradient-5"/><linearGradient id="linear-gradient-18" x1="694.09" y1="422.88" x2="566.72" y2="627.27" gradientUnits="userSpaceOnUse"><stop offset="0" stop-color="#0a4400"/><stop offset="0.02" stop-color="#0a4e09"/><stop offset="0.08" stop-color="#0a6d24"/><stop offset="0.14" stop-color="#0a893c"/><stop offset="0.22" stop-color="#0a9f4f"/><stop offset="0.31" stop-color="#0ab05d"/><stop offset="0.42" stop-color="#0abb67"/><stop offset="0.57" stop-color="#0ac26d"/><stop offset="1" stop-color="#0ac46f"/></linearGradient><linearGradient id="linear-gradient-19" x1="852.63" y1="389.53" x2="652.42" y2="389.53" xlink:href="#linear-gradient-18"/><linearGradient id="linear-gradient-20" x1="852.63" y1="529.92" x2="652.42" y2="529.92" xlink:href="#linear-gradient-18"/><linearGradient id="linear-gradient-21" x1="544.64" y1="300.12" x2="725.96" y2="528.91" xlink:href="#linear-gradient-18"/></defs><path class="cls-1" d="M172.47,680.59H160.11a2.22,2.22,0,0,0-2.51,2.51v29.75H104.05V683.1a2.21,2.21,0,0,0-2.51-2.51H89.18c-1.75,0-2.62.84-2.62,2.51v75c0,1.68.87,2.52,2.62,2.52h12.36a2.22,2.22,0,0,0,2.51-2.52V727.72H157.6v30.43a2.22,2.22,0,0,0,2.51,2.52h12.36c1.75,0,2.64-.84,2.64-2.52v-75C175.11,681.43,174.22,680.59,172.47,680.59Z"/><path class="cls-2" d="M421.18,683.28c-1.38-1.8-4.05-2.69-8-2.69H400.92a23,23,0,0,0-4.29.34,8.42,8.42,0,0,0-3.15,1.31,10.13,10.13,0,0,0-2.46,2.64,28.7,28.7,0,0,0-2.22,4.4L365,744.2a1.62,1.62,0,0,1-1.59,1H362a1.6,1.6,0,0,1-1.58-1l-23.81-54.92a27.82,27.82,0,0,0-2.22-4.4,10.13,10.13,0,0,0-2.46-2.64,8.37,8.37,0,0,0-3.21-1.31,24,24,0,0,0-4.36-.34H311.93c-4.05,0-6.76.89-8.14,2.69s-2.05,4.86-2.05,9.21v65.66c0,1.68.88,2.52,2.62,2.52H316a2.22,2.22,0,0,0,2.51-2.52V698.44c0-.77.3-1.15.92-1.15h1a1.38,1.38,0,0,1,1.47.92l23.12,51.24a34,34,0,0,0,2.8,5.22,16.55,16.55,0,0,0,3.08,3.48,9.88,9.88,0,0,0,3.78,2,19.33,19.33,0,0,0,5,.57h5.49a19.33,19.33,0,0,0,5-.57,9.88,9.88,0,0,0,3.78-2,16.28,16.28,0,0,0,3.08-3.48,34.91,34.91,0,0,0,2.81-5.22L403,698.21a1.38,1.38,0,0,1,1.47-.92h1c.62,0,.92.38.92,1.15v59.71a2.22,2.22,0,0,0,2.51,2.52h11.68c1.74,0,2.62-.84,2.62-2.52V692.49Q423.23,686,421.18,683.28Z"/><path class="cls-3" d="M453.32,680.59H441c-1.75,0-2.62.84-2.62,2.51v75c0,1.68.87,2.52,2.62,2.52h12.36a2.22,2.22,0,0,0,2.51-2.52v-75A2.22,2.22,0,0,0,453.32,680.59Z"/><path class="cls-4" d="M561,698.37a23.33,23.33,0,0,0-6.24-10.06,26.21,26.21,0,0,0-10.87-5.83,58.13,58.13,0,0,0-15.9-1.89H474.49c-2.29,0-3.44,1.15-3.44,3.43V696.5h56.52a33.78,33.78,0,0,1,8.45.9,12.58,12.58,0,0,1,5.56,3,11.76,11.76,0,0,1,3,5.5,33,33,0,0,1,.93,8.47v12.58a32.9,32.9,0,0,1-.93,8.47,11.54,11.54,0,0,1-3,5.48,12.2,12.2,0,0,1-5.56,3,32.78,32.78,0,0,1-8.45.92H490a1.33,1.33,0,0,1-1.49-1.5V703.15h-17.5v54.09q0,3.43,3.44,3.43H528a58.53,58.53,0,0,0,15.9-1.89A26.21,26.21,0,0,0,554.79,753,23.37,23.37,0,0,0,561,742.88a47.11,47.11,0,0,0,2-14.48V712.85A47.29,47.29,0,0,0,561,698.37Z"/><path class="cls-5" d="M686.81,757.81l-19.56-24.26c6-1.07,10.38-3.5,13-7.31s4-9,4-15.57v-6.51c0-7.79-1.91-13.65-5.72-17.63s-10.11-5.94-18.88-5.94H598.26c-2.29,0-3.43,1.15-3.43,3.43v74.13c0,1.68.89,2.52,2.64,2.52h12.36a2.22,2.22,0,0,0,2.51-2.52V735.39h37l18.06,23.79a3.83,3.83,0,0,0,1.14,1.14,4.24,4.24,0,0,0,2.07.35h14.76c1.07,0,1.67-.38,1.83-1.14A1.84,1.84,0,0,0,686.81,757.81Zm-20-46.57q0,5.14-2.4,7.68c-1.6,1.66-4.35,2.51-8.23,2.51H612.34V697.64c0-.92.49-1.38,1.49-1.38h42.33c3.88,0,6.63.84,8.23,2.52s2.4,4.23,2.4,7.66Z"/><path class="cls-6" d="M713.25,704.55a9.53,9.53,0,0,1,2.44-4.8,10.08,10.08,0,0,1,4.71-2.52,30.84,30.84,0,0,1,7.37-.73h50c1.76,0,2.63-.85,2.63-2.53V683.1c0-1.67-.87-2.51-2.63-2.51H727.42a57.41,57.41,0,0,0-14.76,1.65,23.05,23.05,0,0,0-9.88,5.26,21,21,0,0,0-5.61,9.33,47.37,47.37,0,0,0-1.78,14v19.67a47.85,47.85,0,0,0,1.78,14,20.89,20.89,0,0,0,5.61,9.38,22.37,22.37,0,0,0,9.88,5.21,59,59,0,0,0,14.76,1.6h50.34c1.76,0,2.63-.84,2.63-2.52V747.28c0-1.67-.87-2.51-2.63-2.51h-50a29.73,29.73,0,0,1-7.37-.75,10,10,0,0,1-4.71-2.51,9.57,9.57,0,0,1-2.44-4.81,34.35,34.35,0,0,1-.7-7.49v-2h64.63a2.22,2.22,0,0,0,2.53-2.51v-9a2.23,2.23,0,0,0-2.53-2.51H712.55v-1.15A34.45,34.45,0,0,1,713.25,704.55Z"/><path class="cls-7" d="M868.82,680.59h-74c-1.75,0-2.63.84-2.63,2.51V694c0,1.68.88,2.53,2.63,2.53H857c.76,0,1.15.33,1.15,1v.81a1.85,1.85,0,0,1-1,1.72l-60.28,32a19.41,19.41,0,0,0-2.75,1.72,5.67,5.67,0,0,0-1.6,1.89,8,8,0,0,0-.8,2.51,21.43,21.43,0,0,0-.24,3.49v10.41c0,2.89.72,5,2.12,6.47s3.72,2.11,6.93,2.11h74c1.76,0,2.63-.84,2.63-2.52V747.28c0-1.67-.87-2.51-2.63-2.51h-62.8c-.76,0-1.14-.35-1.14-1v-.79a1.85,1.85,0,0,1,1-1.72l60.52-31.92a22.14,22.14,0,0,0,2.81-1.71,6.26,6.26,0,0,0,1.71-1.89,8.11,8.11,0,0,0,.91-2.51,18.26,18.26,0,0,0,.29-3.5V689.28Q877.86,680.58,868.82,680.59Z"/><path class="cls-8" d="M919.85,731.14l-7.21,13.27-7.9,14.76a2.75,2.75,0,0,1-2.62,1.49H887.25c-1,0-1.59-.25-1.78-.74a2.35,2.35,0,0,1,.29-1.89l37.53-68.75c.44-.81.9-1.58,1.35-2.26l9.48,17.48Z"/><path class="cls-9" d="M993.36,759.92c-.2.49-.75.74-1.67.74h-73a1.21,1.21,0,0,1-1.08-1.76L924,746.78a1.23,1.23,0,0,1,1.08-.65h42.3L941,697.57,932,681a12.73,12.73,0,0,1,3.34-.43H942a14.11,14.11,0,0,1,7.33,1.77c2,1.19,3.92,3.49,5.83,6.93L993.07,758A2.57,2.57,0,0,1,993.36,759.92Z"/><path class="cls-10" d="M292.14,758l-37.88-68.75q-2.85-5.14-5.83-6.92a14,14,0,0,0-7.32-1.77h-6.74a11.63,11.63,0,0,0-6.42,1.77q-2.74,1.78-5.59,6.92L184.83,758a2.41,2.41,0,0,0-.29,1.9c.19.49.78.74,1.78.74H201.2a2.76,2.76,0,0,0,2.62-1.49l7.89-14.76,7.22-13.27,17.95-33.51a1.4,1.4,0,0,1,1.26-.81h.68a1.4,1.4,0,0,1,1.26.81l18.19,33.51,7.21,13.27.95,1.71h-42.3a1.21,1.21,0,0,0-1.08.65l-6.35,12.11a1.21,1.21,0,0,0,1.07,1.78h73c.92,0,1.48-.25,1.67-.74A2.55,2.55,0,0,0,292.14,758Z"/><polyline class="cls-11" points="931.96 681.01 940.95 697.57 967.35 746.13"/><line class="cls-11" x1="934.12" y1="704.5" x2="924.64" y2="687.02"/><line class="cls-11" x1="957.78" y1="748.02" x2="956.75" y2="746.13"/><polygon class="cls-12" points="511.16 319.33 507.6 325.51 492.6 351.54 430.3 459.72 393.19 459.72 511.16 319.33"/><polygon class="cls-13" points="511.16 600.12 474.04 600.12 393.19 459.72 511.16 600.12"/><polygon class="cls-14" points="511.16 319.33 393.19 459.72 474.04 319.33 511.16 319.33"/><polygon class="cls-15" points="559.73 351.54 541.17 383.77 529.1 404.7 510.54 436.95 478.87 491.93 460.32 459.72 491.98 404.7 510.54 372.51 522.62 351.54 541.17 319.33 559.73 351.54"/><polygon class="cls-16" points="572.86 480.69 554.3 512.9 510.54 436.95 529.1 404.7 572.86 480.69"/><polygon class="cls-17" points="622.03 459.72 591.41 512.9 572.86 545.09 559.73 567.91 541.17 600.12 522.62 567.91 541.17 535.67 554.3 512.9 572.86 480.69 603.48 427.47 622.03 459.72"/><polygon class="cls-18" points="511.16 600.12 393.19 459.72 430.3 459.72 511.16 600.12"/><polygon class="cls-19" points="571.71 600.12 575.27 593.93 590.27 567.91 652.57 459.72 689.69 459.72 571.71 600.12"/><polygon class="cls-20" points="571.71 319.33 608.83 319.33 689.69 459.72 571.71 319.33"/><polygon class="cls-21" points="571.71 600.12 689.69 459.72 608.83 600.12 571.71 600.12"/><polygon class="cls-22" points="571.71 319.33 689.69 459.72 652.57 459.72 571.71 319.33"/></svg>