<svg id="Layer_1" data-name="Layer 1" xmlns="http://www.w3.org/2000/svg" xmlns:xlink="http://www.w3.org/1999/xlink" viewBox="0 0 1080 1080"><defs><style>.cls-1{fill:url(#linear-gradient);}.cls-2{fill:url(#linear-gradient-2);}.cls-3{fill:url(#linear-gradient-3);}.cls-4{fill:url(#linear-gradient-4);}.cls-5{fill:url(#linear-gradient-5);}.cls-6{fill:url(#linear-gradient-6);}.cls-7{fill:url(#linear-gradient-7);}.cls-8{fill:url(#linear-gradient-8);}.cls-9{fill:url(#linear-gradient-9);}.cls-10{fill:url(#linear-gradient-10);}.cls-11{fill:none;}.cls-12{fill:url(#linear-gradient-11);}.cls-13{fill:url(#linear-gradient-12);}.cls-14{fill:url(#linear-gradient-13);}</style><linearGradient id="linear-gradient" x1="518.98" y1="655.67" x2="85.96" y2="750.77" gradientUnits="userSpaceOnUse"><stop offset="0" stop-color="#24e6aa"/><stop offset="1" stop-color="#46ef7e"/></linearGradient><linearGradient id="linear-gradient-2" x1="529.66" y1="704.3" x2="96.64" y2="799.4" xlink:href="#linear-gradient"/><linearGradient id="linear-gradient-3" x1="533.39" y1="721.25" x2="100.36" y2="816.35" xlink:href="#linear-gradient"/><linearGradient id="linear-gradient-4" x1="536.01" y1="733.2" x2="102.99" y2="828.3" xlink:href="#linear-gradient"/><linearGradient id="linear-gradient-5" x1="602.1" y1="733.52" x2="997.76" y2="825.21" gradientUnits="userSpaceOnUse"><stop offset="0" stop-color="#0ad0ff"/><stop offset="1" stop-color="#8e7afe"/></linearGradient><linearGradient id="linear-gradient-6" x1="608.05" y1="707.84" x2="1003.71" y2="799.54" xlink:href="#linear-gradient-5"/><linearGradient id="linear-gradient-7" x1="612.37" y1="689.19" x2="1008.03" y2="780.89" xlink:href="#linear-gradient-5"/><linearGradient id="linear-gradient-8" x1="798.68" y1="719.24" x2="930.66" y2="749.83" xlink:href="#linear-gradient-5"/><linearGradient id="linear-gradient-9" x1="716.46" y1="691.12" x2="1007.95" y2="758.67" xlink:href="#linear-gradient-5"/><linearGradient id="linear-gradient-10" x1="524.96" y1="682.88" x2="91.93" y2="777.97" xlink:href="#linear-gradient"/><linearGradient id="linear-gradient-11" x1="588.16" y1="292.27" x2="409.29" y2="505.1" gradientUnits="userSpaceOnUse"><stop offset="0" stop-color="#03d8f9"/><stop offset="1" stop-color="#26e3c4"/></linearGradient><linearGradient id="linear-gradient-12" x1="643.13" y1="338.47" x2="464.26" y2="551.3" xlink:href="#linear-gradient"/><linearGradient id="linear-gradient-13" x1="616.33" y1="315.94" x2="437.46" y2="528.77" xlink:href="#linear-gradient-5"/></defs><path class="cls-1" d="M176.3,700.36H164.06a2.19,2.19,0,0,0-2.48,2.48v29.44h-53V702.84a2.19,2.19,0,0,0-2.48-2.48H93.87c-1.73,0-2.59.83-2.59,2.48v74.27c0,1.66.86,2.49,2.59,2.49h12.24a2.19,2.19,0,0,0,2.48-2.49V747h53v30.12a2.2,2.2,0,0,0,2.48,2.49H176.3c1.73,0,2.61-.83,2.61-2.49V702.84C178.91,701.19,178,700.36,176.3,700.36Z"/><path class="cls-2" d="M422.42,703c-1.37-1.78-4-2.66-7.93-2.66H402.37a23.59,23.59,0,0,0-4.25.33A8.38,8.38,0,0,0,395,702a9.92,9.92,0,0,0-2.44,2.61,29.1,29.1,0,0,0-2.2,4.36L366.82,763.3a1.59,1.59,0,0,1-1.57,1h-1.37a1.57,1.57,0,0,1-1.57-1L338.75,709a27.31,27.31,0,0,0-2.2-4.36,9.76,9.76,0,0,0-2.44-2.61,8.33,8.33,0,0,0-3.17-1.3,24.38,24.38,0,0,0-4.31-.33H314.3c-4,0-6.68.88-8.05,2.66s-2,4.81-2,9.12v65c0,1.66.87,2.49,2.6,2.49h11.55a2.2,2.2,0,0,0,2.49-2.49V718c0-.76.3-1.14.91-1.14h1a1.37,1.37,0,0,1,1.46.92l22.88,50.7a33.26,33.26,0,0,0,2.77,5.16,16,16,0,0,0,3.05,3.45,9.82,9.82,0,0,0,3.74,1.93,18.93,18.93,0,0,0,4.92.56h5.44A19,19,0,0,0,372,779a9.89,9.89,0,0,0,3.74-1.93,16.54,16.54,0,0,0,3-3.45,34.1,34.1,0,0,0,2.78-5.16l22.86-50.7a1.38,1.38,0,0,1,1.47-.92h1c.61,0,.91.38.91,1.14v59.09a2.2,2.2,0,0,0,2.48,2.49h11.56c1.73,0,2.59-.83,2.59-2.49v-65Q424.44,705.68,422.42,703Z"/><path class="cls-3" d="M454.22,700.36H442c-1.73,0-2.59.83-2.59,2.48v74.27c0,1.66.86,2.49,2.59,2.49h12.23a2.2,2.2,0,0,0,2.49-2.49V702.84A2.2,2.2,0,0,0,454.22,700.36Z"/><path class="cls-4" d="M560.81,718a23.09,23.09,0,0,0-6.18-10,25.7,25.7,0,0,0-10.75-5.77,57.41,57.41,0,0,0-15.74-1.87h-53q-3.41,0-3.4,3.4V716.1H527.7a33.72,33.72,0,0,1,8.37.89,12.52,12.52,0,0,1,5.5,2.94,11.73,11.73,0,0,1,3,5.44,32.88,32.88,0,0,1,.91,8.39v12.45a32.79,32.79,0,0,1-.91,8.38,11.56,11.56,0,0,1-3,5.42,12,12,0,0,1-5.5,2.94,32.23,32.23,0,0,1-8.37.92H490.56a1.31,1.31,0,0,1-1.48-1.48v-39.7H471.77v53.52q0,3.39,3.4,3.39h53a57.79,57.79,0,0,0,15.74-1.87A25.82,25.82,0,0,0,554.63,772a23.1,23.1,0,0,0,6.18-10,46.4,46.4,0,0,0,2-14.32V732.28A46.6,46.6,0,0,0,560.81,718Z"/><path class="cls-5" d="M685.28,776.77l-19.35-24c6-1.06,10.26-3.46,12.9-7.24s4-8.91,4-15.41v-6.44c0-7.71-1.89-13.51-5.66-17.44s-10-5.88-18.68-5.88H597.65q-3.39,0-3.39,3.4v73.35c0,1.66.88,2.49,2.61,2.49H609.1a2.2,2.2,0,0,0,2.48-2.49V754.59h36.58L666,778.13a3.77,3.77,0,0,0,1.13,1.13,4.1,4.1,0,0,0,2,.34h14.61c1,0,1.65-.37,1.81-1.13A1.81,1.81,0,0,0,685.28,776.77Zm-19.81-46.08q0,5.1-2.38,7.59c-1.58,1.65-4.3,2.49-8.14,2.49H611.58V717.23c0-.91.49-1.37,1.48-1.37H655c3.84,0,6.56.84,8.14,2.5s2.38,4.18,2.38,7.58Z"/><path class="cls-6" d="M711.44,724.07a9.35,9.35,0,0,1,2.43-4.75,9.9,9.9,0,0,1,4.65-2.5,30.33,30.33,0,0,1,7.3-.72h49.46c1.75,0,2.61-.84,2.61-2.5V702.84c0-1.65-.86-2.48-2.61-2.48H725.47A56.8,56.8,0,0,0,710.86,702a22.77,22.77,0,0,0-9.78,5.21,20.88,20.88,0,0,0-5.55,9.23,46.78,46.78,0,0,0-1.76,13.82v19.46a47.28,47.28,0,0,0,1.76,13.87,20.77,20.77,0,0,0,5.55,9.28,22.19,22.19,0,0,0,9.78,5.16,58.37,58.37,0,0,0,14.61,1.58h49.81c1.75,0,2.61-.83,2.61-2.49V766.35c0-1.65-.86-2.48-2.61-2.48H725.82a29.72,29.72,0,0,1-7.3-.74,9.88,9.88,0,0,1-4.65-2.49,9.43,9.43,0,0,1-2.43-4.76,34.32,34.32,0,0,1-.69-7.41v-1.93h64a2.2,2.2,0,0,0,2.5-2.49v-8.94a2.21,2.21,0,0,0-2.5-2.49h-64v-1.13A34.41,34.41,0,0,1,711.44,724.07Z"/><path class="cls-7" d="M865.39,700.36H792.15c-1.73,0-2.59.83-2.59,2.48V713.6c0,1.66.86,2.5,2.59,2.5h61.59c.76,0,1.13.33,1.13,1v.81a1.81,1.81,0,0,1-1,1.69L794.2,751.3a18.44,18.44,0,0,0-2.72,1.7,5.67,5.67,0,0,0-1.59,1.87,7.59,7.59,0,0,0-.79,2.49,22.34,22.34,0,0,0-.23,3.46v10.29q0,4.3,2.09,6.4t6.85,2.09h73.24c1.75,0,2.61-.83,2.61-2.49V766.35c0-1.65-.86-2.48-2.61-2.48H808.91c-.75,0-1.13-.35-1.13-1v-.78a1.82,1.82,0,0,1,1-1.7l59.89-31.59a21.62,21.62,0,0,0,2.78-1.7,6,6,0,0,0,1.7-1.87,8.17,8.17,0,0,0,.9-2.48,17.9,17.9,0,0,0,.28-3.46V709C874.34,703.22,871.37,700.36,865.39,700.36Z"/><path class="cls-8" d="M915.9,750.38l-7.14,13.13L901,778.12a2.74,2.74,0,0,1-2.6,1.48H883.63c-1,0-1.57-.25-1.76-.74a2.38,2.38,0,0,1,.29-1.87l37.14-68c.44-.8.89-1.55,1.33-2.23L930,724Z"/><path class="cls-9" d="M988.64,778.86c-.19.49-.74.74-1.65.74H914.75a1.21,1.21,0,0,1-1.07-1.75l6.29-12a1.23,1.23,0,0,1,1.07-.65H962.9l-26.12-48.05-8.9-16.38a12,12,0,0,1,3.3-.43h6.67a13.93,13.93,0,0,1,7.25,1.75q2.94,1.77,5.77,6.85l37.48,68A2.52,2.52,0,0,1,988.64,778.86Z"/><path class="cls-10" d="M294.72,777l-37.48-68q-2.84-5.1-5.77-6.86a14,14,0,0,0-7.25-1.74h-6.67a11.54,11.54,0,0,0-6.35,1.74q-2.72,1.77-5.53,6.86l-37.14,68a2.38,2.38,0,0,0-.29,1.87c.19.48.77.73,1.76.73h14.72a2.73,2.73,0,0,0,2.6-1.47l7.81-14.61,7.14-13.13L240,717.23a1.39,1.39,0,0,1,1.24-.8H242a1.38,1.38,0,0,1,1.24.8l18,33.16,7.14,13.13.93,1.7H227.41a1.21,1.21,0,0,0-1.06.64l-6.29,12a1.19,1.19,0,0,0,1.07,1.75h72.23c.91,0,1.46-.25,1.65-.73A2.52,2.52,0,0,0,294.72,777Z"/><polyline class="cls-11" points="927.88 700.78 936.78 717.16 962.9 765.21"/><line class="cls-11" x1="930.02" y1="724.02" x2="920.63" y2="706.72"/><line class="cls-11" x1="953.43" y1="767.08" x2="952.41" y2="765.21"/><polygon class="cls-12" points="479.41 572.14 482.93 578.26 446.2 578.26 366.18 439.33 446.2 300.39 482.93 300.39 479.41 306.52 464.56 332.26 402.91 439.33 464.56 546.39 479.41 572.14"/><polygon class="cls-13" points="543.52 306.52 540 300.39 576.73 300.39 656.75 439.33 576.73 578.26 540 578.26 543.52 572.14 558.37 546.39 620.02 439.33 558.37 332.26 543.52 306.52"/><polygon class="cls-14" points="592.64 439.33 562.34 491.95 543.97 523.82 530.99 546.39 512.63 578.26 494.26 546.39 512.63 514.48 525.61 491.95 482.32 416.79 450.98 471.19 432.61 439.33 463.96 384.88 482.32 353.02 494.26 332.26 512.63 300.39 530.99 332.26 512.63 364.17 500.69 384.88 543.97 460.08 574.28 407.42 592.64 439.33"/></svg>